<svg xmlns="http://www.w3.org/2000/svg" xmlns:xlink="http://www.w3.org/1999/xlink" version="1.1" preserveAspectRatio="xMidYMid meet" viewBox="0 0 750 1334" width="750" height="1334">
    <defs>
        <path d="M655.36 0L0 0L0 1334L655.36 1334L655.36 0Z" id="d1yfkx4gOc" />
        <linearGradient id="gradienta2b8VWzjTz" gradientUnits="userSpaceOnUse" x1="327.68" y1="0" x2="327.68" y2="1334">
            <stop style="stop-color: #2523f1;stop-opacity: 1" offset="0%" />
            <stop style="stop-color: #22c6e5;stop-opacity: 1" offset="100%" />
        </linearGradient>
        <path d="M156.69 116.41C156.69 165.6 117.03 205.53 68.18 205.53C19.32 205.53 -20.34 165.6 -20.34 116.41C-20.34 67.22 19.32 27.29 68.18 27.29C117.03 27.29 156.69 67.22 156.69 116.41Z" id="c7f5xOrM" />
        <path d="M174.3 241.69C174.3 264.7 154.46 283.38 130.02 283.38C105.58 283.38 85.74 264.7 85.74 241.69C85.74 218.68 105.58 200 130.02 200C154.46 200 174.3 218.68 174.3 241.69Z" id="a5UHA6Ub9x" />
        <path d="M691.77 303.25C691.77 394.44 619.65 468.48 530.82 468.48C441.99 468.48 369.87 394.44 369.87 303.25C369.87 212.06 441.99 138.03 530.82 138.03C619.65 138.03 691.77 212.06 691.77 303.25Z" id="b15YzGbjwK" />
        <path d="M640.97 75.02C640.97 116.43 608.38 150.04 568.24 150.04C528.1 150.04 495.51 116.43 495.51 75.02C495.51 33.62 528.1 0 568.24 0C608.38 0 640.97 33.62 640.97 75.02Z" id="a6nIBSHrP" />
        <path d="M233.23 458.22C239 518.93 195.34 572.82 135.79 578.48C76.24 584.14 23.2 539.45 17.43 478.73C11.66 418.02 55.32 364.13 114.87 358.47C174.42 352.81 227.45 397.51 233.23 458.22Z" id="b7asSJCit" />
        <path d="M281.61 83.36C281.61 106.37 261.77 125.05 237.33 125.05C212.89 125.05 193.04 106.37 193.04 83.36C193.04 60.35 212.89 41.67 237.33 41.67C261.77 41.67 281.61 60.35 281.61 83.36Z" id="a3w31cCKBF" />
        <path d="M366.22 503.87C366.22 526.88 346.38 545.56 321.94 545.56C297.5 545.56 277.66 526.88 277.66 503.87C277.66 480.86 297.5 462.18 321.94 462.18C346.38 462.18 366.22 480.86 366.22 503.87Z" id="b1CQdpwOt3" />
        <path d="M335.07 258.87C335.07 281.88 315.23 300.56 290.79 300.56C266.35 300.56 246.51 281.88 246.51 258.87C246.51 235.86 266.35 217.18 290.79 217.18C315.23 217.18 335.07 235.86 335.07 258.87Z" id="boyBcE5nP" />
        <path d="M614.43 576.13C614.43 616 580.51 648.38 538.74 648.38C496.96 648.38 463.04 616 463.04 576.13C463.04 536.25 496.96 503.87 538.74 503.87C580.51 503.87 614.43 536.25 614.43 576.13Z" id="a11BM3JdUK" />
        <path d="M269.22 614.13C269.22 663.32 226.69 703.25 174.3 703.25C121.91 703.25 79.38 663.32 79.38 614.13C79.38 564.94 121.91 525 174.3 525C226.69 525 269.22 564.94 269.22 614.13Z" id="bGOuprHk" />
        <path d="M450.02 652.33C450.02 667.56 436.5 679.92 419.84 679.92C403.19 679.92 389.66 667.56 389.66 652.33C389.66 637.11 403.19 624.75 419.84 624.75C436.5 624.75 450.02 637.11 450.02 652.33Z" id="b109gtMWlM" />
        <path d="M135.02 753.27C135.02 780.88 113.44 803.29 86.85 803.29C60.27 803.29 38.69 780.88 38.69 753.27C38.69 725.67 60.27 703.25 86.85 703.25C113.44 703.25 135.02 725.67 135.02 753.27Z" id="b4Ub4UKcWo" />
        <path d="M491.71 803.87C491.71 883.84 428.21 948.76 349.99 948.76C271.78 948.76 208.27 883.84 208.27 803.87C208.27 723.9 271.78 658.98 349.99 658.98C428.21 658.98 491.71 723.9 491.71 803.87Z" id="ae1Hiyn5q" />
        <path d="M575.07 955.92C575.07 978.93 555.23 997.61 530.79 997.61C506.35 997.61 486.51 978.93 486.51 955.92C486.51 932.92 506.35 914.24 530.79 914.24C555.23 914.24 575.07 932.92 575.07 955.92Z" id="bSapFvkyr" />
        <path d="M226.35 980.28C226.35 1022.39 192.43 1056.58 150.66 1056.58C108.88 1056.58 74.97 1022.39 74.97 980.28C74.97 938.17 108.88 903.98 150.66 903.98C192.43 903.98 226.35 938.17 226.35 980.28Z" id="aA8BjAcKS" />
        <path d="M650.71 783.13C650.71 799.61 635.75 813 617.33 813C598.9 813 583.94 799.61 583.94 783.13C583.94 766.65 598.9 753.27 617.33 753.27C635.75 753.27 650.71 766.65 650.71 783.13Z" id="f3sC2Aye3a" />
        <path d="M538.74 1116.95C538.74 1162.25 499.8 1199.02 451.85 1199.02C403.9 1199.02 364.97 1162.25 364.97 1116.95C364.97 1071.65 403.9 1034.88 451.85 1034.88C499.8 1034.88 538.74 1071.65 538.74 1116.95Z" id="bcFyfwgee" />
        <path d="M251.22 1136.05C251.22 1164.37 227.07 1187.35 197.33 1187.35C167.58 1187.35 143.43 1164.37 143.43 1136.05C143.43 1107.74 167.58 1084.75 197.33 1084.75C227.07 1084.75 251.22 1107.74 251.22 1136.05Z" id="c4gKP2Dbn" />
        <path d="M431.99 1312.33C431.99 1369.31 383.43 1415.56 323.61 1415.56C263.79 1415.56 215.22 1369.31 215.22 1312.33C215.22 1255.36 263.79 1209.11 323.61 1209.11C383.43 1209.11 431.99 1255.36 431.99 1312.33Z" id="aHqwelYz" />
    </defs>
    <g>
        <g>
            <use xlink:href="#d1yfkx4gOc" opacity="1" fill="url(#gradienta2b8VWzjTz)" />
        </g>
        <g>
            <g>
                <use xlink:href="#c7f5xOrM" opacity="1" fill-opacity="0" stroke="#ffffff" stroke-width="11" stroke-opacity="0.34" />
            </g>
        </g>
        <g>
            <g>
                <use xlink:href="#a5UHA6Ub9x" opacity="1" fill-opacity="0" stroke="#ffffff" stroke-width="13" stroke-opacity="0.63" />
            </g>
        </g>
        <g>
            <g>
                <use xlink:href="#b15YzGbjwK" opacity="1" fill-opacity="0" stroke="#ffffff" stroke-width="16" stroke-opacity="0.36" />
            </g>
        </g>
        <g>
            <g>
                <use xlink:href="#a6nIBSHrP" opacity="1" fill-opacity="0" stroke="#ffffff" stroke-width="11" stroke-opacity="0.76" />
            </g>
        </g>
        <g>
            <g>
                <use xlink:href="#b7asSJCit" opacity="1" fill-opacity="0" stroke="#ffffff" stroke-width="11" stroke-opacity="0.21" />
            </g>
        </g>
        <g>
            <g>
                <use xlink:href="#a3w31cCKBF" opacity="1" fill-opacity="0" stroke="#ffffff" stroke-width="8" stroke-opacity="0.26" />
            </g>
        </g>
        <g>
            <g>
                <use xlink:href="#b1CQdpwOt3" opacity="1" fill-opacity="0" stroke="#ffffff" stroke-width="6" stroke-opacity="0.63" />
            </g>
        </g>
        <g>
            <g>
                <use xlink:href="#boyBcE5nP" opacity="1" fill-opacity="0" stroke="#ffffff" stroke-width="20" stroke-opacity="0.1" />
            </g>
        </g>
        <g>
            <g>
                <use xlink:href="#a11BM3JdUK" opacity="1" fill-opacity="0" stroke="#ffffff" stroke-width="10" stroke-opacity="0.49" />
            </g>
        </g>
        <g>
            <g>
                <use xlink:href="#bGOuprHk" opacity="1" fill-opacity="0" stroke="#ffffff" stroke-width="6" stroke-opacity="0.31" />
            </g>
        </g>
        <g>
            <g>
                <use xlink:href="#b109gtMWlM" opacity="1" fill-opacity="0" stroke="#ffffff" stroke-width="6" stroke-opacity="0.49" />
            </g>
        </g>
        <g>
            <g>
                <use xlink:href="#b4Ub4UKcWo" opacity="1" fill-opacity="0" stroke="#ffffff" stroke-width="9" stroke-opacity="0.64" />
            </g>
        </g>
        <g>
            <g>
                <use xlink:href="#ae1Hiyn5q" opacity="1" fill-opacity="0" stroke="#ffffff" stroke-width="10" stroke-opacity="0.12" />
            </g>
        </g>
        <g>
            <g>
                <use xlink:href="#bSapFvkyr" opacity="1" fill-opacity="0" stroke="#ffffff" stroke-width="12" stroke-opacity="0.69" />
            </g>
        </g>
        <g>
            <g>
                <use xlink:href="#aA8BjAcKS" opacity="1" fill-opacity="0" stroke="#ffffff" stroke-width="6" stroke-opacity="0.54" />
            </g>
        </g>
        <g>
            <g>
                <use xlink:href="#f3sC2Aye3a" opacity="1" fill-opacity="0" stroke="#ffffff" stroke-width="6" stroke-opacity="0.79" />
            </g>
        </g>
        <g>
            <g>
                <use xlink:href="#bcFyfwgee" opacity="1" fill-opacity="0" stroke="#ffffff" stroke-width="17" stroke-opacity="0.15" />
            </g>
        </g>
        <g>
            <g>
                <use xlink:href="#c4gKP2Dbn" opacity="1" fill-opacity="0" stroke="#ffffff" stroke-width="7" stroke-opacity="0.7" />
            </g>
        </g>
        <g>
            <g>
                <use xlink:href="#aHqwelYz" opacity="1" fill-opacity="0" stroke="#ffffff" stroke-width="5" stroke-opacity="0.21" />
            </g>
        </g>
    </g>
</svg>